<svg xmlns="http://www.w3.org/2000/svg" width="201" height="100">
    <path d="M42 56l31 5" fill="none" stroke="#000" stroke-width="2" stroke-linecap="round" stroke-linejoin="round"/>
    <path d="M189 1c-13 7-31 12-49 14-2 2-2 5-1 8-8-4-17 1-21 12-2-4-12-5-18 2-10-1-24 2-25 17l-3 6c-7 0-10 4-8 11-3 5-2 9 1 14-4 1-10 7-10 14h140c7-36 6-72-6-98z" fill="#0e5d2d" fill-rule="evenodd" stroke="#000" stroke-width="2" stroke-linecap="round" stroke-linejoin="round"/>
    <path d="M46 91c2-5-4-10-10-14l-4-16c-5 3-11 3-16 1-3 5-2 10-4 16C2 84 0 90 2 94c5-2 9-8 16-7l13 7c3-1 4-6 2-9 6 1 9 4 13 6zM36 44l-5 16 49 10h1c5-4 13-4 16 3 1-6 8-12 16-8 3-5 11-7 17-6l6-6c1-3-1-6-5-8-12 1-22 6-30 12-28-8-45-9-65-13z" fill="#784421" fill-rule="evenodd" stroke="#000" stroke-width="2" stroke-linecap="round" stroke-linejoin="round"/>
    <path d="M32 61c0 1-4 3-8 3s-8-2-8-3c0-2 5-3 8-6l8 6zm3-17c2 0 2 3 2 8-1 4-3 7-5 7-1 0-1-5-4-9l7-6z" fill="#ba805a" stroke="#000" stroke-width="2" stroke-linecap="round" stroke-linejoin="round"/>
    <path d="M113 64c-7-3-14 1-16 7-6-3-9-5-14-4-6 2-9 7-8 13 2-5 3-7 9-11 6-2 10 2 14 8 1-7 5-15 16-10 3-6 9-7 15-7 5 1 11 3 11 8h3c-1-7-8-9-14-10s-12 1-16 6zM68 53c8 1 16 2 25 5-19-2-20-3-25-5zm-29 5c11 1 21 2 31 6-23-2-24-4-31-6z" fill-rule="evenodd"/>
    <path d="M73 63c7 1 15 1 23 4-17-1-18-3-23-4zM17 81c0-5 0-10 2-15 1 11-1 12-2 15zm13 1c0-5 0-9-2-15-1 11 1 12 2 15zm106 4c-6 1-9 5-10 11 2-5 5-8 10-9 5 0 9 2 11 7 0-7-5-10-11-9zm-47-4c-6 1-9 6-9 12 2-5 5-8 10-9s9 2 11 7c0-8-5-10-12-10zm28-47c-6 1-9 5-10 11 2-5 5-8 10-9 5 0 9 2 11 7 0-7-5-10-11-9z" fill-rule="evenodd"/>
    <path d="M100 43c-6 1-8 4-9 9 2-4 5-6 9-6 5-1 8 1 9 4 1-5-4-8-9-7z" fill-rule="evenodd"/>
</svg>
